<?xml version="1.0" encoding="iso-8859-1"?>
<!-- Generator: Adobe Illustrator 19.0.0, SVG Export Plug-In . SVG Version: 6.00 Build 0)  -->
<svg version="1.1" id="Layer_1" xmlns="http://www.w3.org/2000/svg" xmlns:xlink="http://www.w3.org/1999/xlink" x="0px" y="0px"
	 viewBox="0 0 501.982 501.982" style="enable-background:new 0 0 501.982 501.982;" xml:space="preserve">
<g>
	<g>
		<g>
			<path d="M493.159,43.86c-11.766-11.764-30.906-11.764-42.672,0L279.755,214.591c-11.518-0.118-22.515,4.328-30.782,12.596
				L97.148,379.013c-2.54,2.542-6.675,2.541-9.216,0c-1.226-1.226-1.901-2.862-1.901-4.607s0.675-3.382,1.901-4.608
				c8.128-8.128,12.604-18.935,12.604-30.429c0-11.494-4.476-22.301-12.604-30.429c-16.778-16.777-44.078-16.778-60.858,0
				c-36.098,36.098-36.098,94.833,0,130.932c18.049,18.049,41.757,27.073,65.466,27.073c23.708,0,47.417-9.024,65.466-27.073
				l151.826-151.826c8.268-8.268,12.716-19.269,12.596-30.783L493.159,86.531C504.922,74.766,504.922,55.624,493.159,43.86z
				 M295.69,273.902L143.864,425.728c-28.3,28.302-74.347,28.301-102.647,0c-28.3-28.299-28.3-74.347,0-102.647
				c4.491-4.491,10.388-6.735,16.287-6.735c5.897,0,11.797,2.246,16.287,6.735c4.351,4.35,6.747,10.134,6.747,16.287
				c0,6.153-2.396,11.937-6.747,16.287c-5.003,5.003-7.759,11.663-7.759,18.75c0,7.087,2.756,13.747,7.759,18.75
				c10.339,10.338,27.163,10.337,37.5,0l151.827-151.826c5.079-5.079,12.091-7.467,19.239-6.549
				c5.092,0.653,9.702,2.918,13.334,6.549c3.632,3.632,5.896,8.242,6.549,13.332c0,0.001,0,0.001,0,0.001
				C303.156,261.811,300.768,268.823,295.69,273.902z M479.016,72.389L316.174,235.23l-0.001,0.009
				c-1.766-2.894-3.884-5.594-6.343-8.052c-2.457-2.458-5.158-4.575-8.051-6.341l0.008-0.002L464.63,58.002
				c1.921-1.921,4.476-2.979,7.193-2.979s5.272,1.058,7.193,2.979C482.984,61.969,482.984,68.422,479.016,72.389z"/>
			<path d="M261.138,268.056l-12.104,12.104c-3.905,3.905-3.905,10.237,0,14.143c1.953,1.953,4.512,2.929,7.071,2.929
				c2.559,0,5.118-0.976,7.071-2.929l12.104-12.104c3.905-3.905,3.905-10.237,0-14.143
				C271.375,264.15,265.044,264.15,261.138,268.056z"/>
			<path d="M223.818,305.375l-62.537,62.537c-3.905,3.905-3.905,10.237,0,14.143c1.953,1.953,4.512,2.929,7.071,2.929
				s5.119-0.976,7.071-2.929l62.537-62.537c3.905-3.905,3.905-10.237,0-14.143C234.057,301.47,227.725,301.47,223.818,305.375z"/>
			<path d="M128.513,302.274c25.258,0,45.807-20.549,45.807-45.807s-20.549-45.807-45.807-45.807
				c-25.258,0-45.807,20.549-45.807,45.807S103.253,302.274,128.513,302.274z M128.513,230.66c14.23,0,25.807,11.577,25.807,25.807
				c0,14.23-11.577,25.807-25.807,25.807c-14.23,0-25.807-11.577-25.807-25.807C102.706,242.237,114.282,230.66,128.513,230.66z"/>
		</g>
	</g>
</g>
<g>
</g>
<g>
</g>
<g>
</g>
<g>
</g>
<g>
</g>
<g>
</g>
<g>
</g>
<g>
</g>
<g>
</g>
<g>
</g>
<g>
</g>
<g>
</g>
<g>
</g>
<g>
</g>
<g>
</g>
</svg>
