<svg xmlns="http://www.w3.org/2000/svg" width="46" height="46" viewBox="0 0 46 46"><path stroke="none" d="m 2.0000012,1006.3622 c 12.7084708,0 22.9999998,10.2916 22.9999998,23 0,12.7085 -10.291529,23 -22.9999998,23 -12.7084722,0 -23.0000002,-10.2915 -23.0000002,-23 0,-12.7084 10.291528,-23 23.0000002,-23 z m -15.5000002,15 c -0.276131,0 -0.499972,0.2239 -0.5,0.5 l 0,15 c 2.8e-5,0.2761 0.223869,0.5 0.5,0.5 l 15.0000002,0 1,0 14.9999998,0 c 0.276131,0 0.499972,-0.2239 0.5,-0.5 l 0,-15 c -2.8e-5,-0.2761 -0.223869,-0.5 -0.5,-0.5 l -14.9999998,0 -1,0 z m 0.5,1 14.5000002,0 0,2 -14.5000002,0 z m 15.5000002,0 14.4999998,0 0,2 -14.4999998,0 z m -15.5000002,3 3.0000002,0 0,8 -3.0000002,0 z m 4.0000002,0 2,0 0,8 -2,0 z m 3,0 7.5,0 0,8 -7.5,0 z m 8.5,0 7.4999998,0 0,8 -7.4999998,0 z m 8.4999998,0 2,0 0,8 -2,0 z m 3,0 3,0 0,8 -3,0 z m -27,9 14.5000002,0 0,2 -14.5000002,0 z m 15.5000002,0 14.4999998,0 0,2 -14.4999998,0 z" color="#000" font-family="sans-serif" font-weight="400" overflow="visible" transform="translate(21 -1006.362)" white-space="normal" style="line-height:normal;text-indent:0;text-align:start;text-decoration-line:none;text-decoration-style:solid;text-decoration-color:#000;text-transform:none;block-progression:tb;isolation:auto;mix-blend-mode:normal"/></svg>