<?xml version="1.0" standalone="no"?>
<!DOCTYPE svg PUBLIC "-//W3C//DTD SVG 20010904//EN"
 "http://www.w3.org/TR/2001/REC-SVG-20010904/DTD/svg10.dtd">
<svg version="1.0" xmlns="http://www.w3.org/2000/svg"
 width="1200.000000pt" height="1200.000000pt" viewBox="0 0 1200.000000 1200.000000"
 preserveAspectRatio="xMidYMid meet">
<metadata>
Created by potrace 1.16, written by Peter Selinger 2001-2019
</metadata>
<g transform="translate(0.000000,1200.000000) scale(0.100000,-0.100000)"
fill="#000000" stroke="none">
<path d="M4800 11391 l0 -608 -142 -7 c-343 -17 -659 -79 -1038 -206 -448
-149 -797 -335 -985 -524 -141 -143 -200 -275 -199 -451 1 -158 42 -279 151
-444 71 -107 254 -292 386 -390 331 -246 789 -453 1277 -576 111 -28 536 -125
547 -125 2 0 3 -522 3 -1160 l0 -1160 -159 0 c-247 0 -373 -22 -519 -91 -46
-22 -88 -37 -93 -34 -5 4 -9 89 -9 189 0 293 -34 427 -135 535 -88 94 -184
131 -341 131 -156 0 -282 -34 -479 -130 -330 -159 -653 -430 -1002 -837 -798
-932 -1903 -2667 -1903 -2987 0 -89 24 -68 855 744 649 633 763 742 965 923
287 257 509 428 815 629 401 264 612 373 639 329 11 -16 -45 -109 -145 -241
-131 -172 -225 -310 -332 -487 -575 -949 -1198 -2512 -1538 -3860 -63 -251
-86 -382 -75 -426 25 -100 147 61 721 953 868 1348 1335 1953 1980 2570 300
287 688 601 712 576 4 -4 10 -50 15 -104 10 -127 27 -2065 28 -3149 l0 -853
240 0 240 0 0 3930 0 3930 23 4 c12 3 89 12 170 21 338 37 549 133 682 310 81
108 114 222 131 455 l6 96 -143 86 c-169 101 -310 172 -458 233 -128 52 -270
95 -317 95 -48 0 -62 28 -73 146 -5 54 -13 656 -17 1337 l-7 1237 -238 0 -239
0 0 -609z m-58 -761 c48 -37 50 -63 55 -709 l5 -604 -344 6 c-188 4 -392 12
-453 17 -327 31 -548 109 -622 221 -42 64 -39 142 7 229 68 127 264 299 520
456 194 119 659 364 739 388 61 19 64 19 93 -4z"/>
<path d="M7027 10630 c-202 -32 -436 -170 -567 -333 -65 -81 -132 -212 -166
-323 -26 -83 -28 -101 -28 -264 0 -149 3 -187 22 -253 48 -175 125 -310 247
-432 134 -135 255 -206 441 -257 105 -28 379 -31 491 -5 308 72 558 283 672
568 54 136 65 198 65 369 -1 178 -17 254 -82 393 -124 264 -362 450 -661 518
-100 22 -344 33 -434 19z"/>
<path d="M8455 8674 c-610 -48 -1411 -365 -1764 -699 -41 -38 -94 -96 -117
-128 -88 -119 -131 -340 -90 -456 45 -125 157 -231 470 -446 l129 -88 71 23
c229 72 414 155 1126 505 705 346 924 444 1269 570 524 190 894 261 1471 285
265 11 429 31 469 56 l25 17 -22 17 c-11 9 -65 31 -119 49 -348 110 -1076 219
-1863 277 -200 14 -937 27 -1055 18z"/>
</g>
</svg>
